<mxfile host="app.diagrams.net" modified="2022-08-19T10:04:41.452Z" agent="5.0 (Macintosh; Intel Mac OS X 10_14_6) AppleWebKit/537.36 (KHTML, like Gecko) Chrome/104.0.0.0 Safari/537.36" etag="B7Ia47gtru2Asdi7XBhw" version="20.2.5" type="github">
  <diagram id="C5RBs43oDa-KdzZeNtuy" name="Page-1">
    <mxGraphModel dx="582" dy="381" grid="1" gridSize="10" guides="1" tooltips="1" connect="1" arrows="1" fold="1" page="1" pageScale="1" pageWidth="827" pageHeight="1169" math="0" shadow="0">
      <root>
        <mxCell id="WIyWlLk6GJQsqaUBKTNV-0" />
        <mxCell id="WIyWlLk6GJQsqaUBKTNV-1" parent="WIyWlLk6GJQsqaUBKTNV-0" />
        <mxCell id="IwlcvmSUmLIL70poKkPn-1" value="madin_institution" style="rounded=0;whiteSpace=wrap;html=1;" vertex="1" parent="WIyWlLk6GJQsqaUBKTNV-1">
          <mxGeometry x="40" y="60" width="120" height="40" as="geometry" />
        </mxCell>
        <mxCell id="IwlcvmSUmLIL70poKkPn-6" value="madin_mapel" style="rounded=0;whiteSpace=wrap;html=1;" vertex="1" parent="WIyWlLk6GJQsqaUBKTNV-1">
          <mxGeometry x="550" y="130" width="120" height="60" as="geometry" />
        </mxCell>
        <mxCell id="IwlcvmSUmLIL70poKkPn-7" value="madin_kwartal" style="rounded=0;whiteSpace=wrap;html=1;" vertex="1" parent="WIyWlLk6GJQsqaUBKTNV-1">
          <mxGeometry x="520" y="370" width="120" height="60" as="geometry" />
        </mxCell>
        <mxCell id="IwlcvmSUmLIL70poKkPn-8" value="madin_nilai" style="rounded=0;whiteSpace=wrap;html=1;" vertex="1" parent="WIyWlLk6GJQsqaUBKTNV-1">
          <mxGeometry x="310" y="140" width="120" height="40" as="geometry" />
        </mxCell>
        <mxCell id="IwlcvmSUmLIL70poKkPn-9" value="madin_presensi" style="rounded=0;whiteSpace=wrap;html=1;" vertex="1" parent="WIyWlLk6GJQsqaUBKTNV-1">
          <mxGeometry x="400" y="470" width="120" height="60" as="geometry" />
        </mxCell>
        <mxCell id="IwlcvmSUmLIL70poKkPn-10" value="madin_rombel" style="rounded=0;whiteSpace=wrap;html=1;" vertex="1" parent="WIyWlLk6GJQsqaUBKTNV-1">
          <mxGeometry x="660" y="320" width="120" height="60" as="geometry" />
        </mxCell>
        <mxCell id="IwlcvmSUmLIL70poKkPn-11" value="&lt;u&gt;id&lt;/u&gt;" style="ellipse;whiteSpace=wrap;html=1;" vertex="1" parent="WIyWlLk6GJQsqaUBKTNV-1">
          <mxGeometry x="20" y="10" width="70" height="40" as="geometry" />
        </mxCell>
        <mxCell id="IwlcvmSUmLIL70poKkPn-14" style="edgeStyle=none;rounded=0;orthogonalLoop=1;jettySize=auto;html=1;exitX=0.5;exitY=1;exitDx=0;exitDy=0;entryX=0.5;entryY=0;entryDx=0;entryDy=0;startArrow=none;startFill=0;endArrow=none;endFill=0;elbow=vertical;" edge="1" parent="WIyWlLk6GJQsqaUBKTNV-1" source="IwlcvmSUmLIL70poKkPn-12" target="IwlcvmSUmLIL70poKkPn-1">
          <mxGeometry relative="1" as="geometry" />
        </mxCell>
        <mxCell id="IwlcvmSUmLIL70poKkPn-12" value="name" style="ellipse;whiteSpace=wrap;html=1;" vertex="1" parent="WIyWlLk6GJQsqaUBKTNV-1">
          <mxGeometry x="100" y="10" width="70" height="40" as="geometry" />
        </mxCell>
        <mxCell id="IwlcvmSUmLIL70poKkPn-13" style="rounded=0;orthogonalLoop=1;jettySize=auto;elbow=vertical;html=1;exitX=0.5;exitY=0;exitDx=0;exitDy=0;startArrow=none;startFill=0;endArrow=none;endFill=0;entryX=0.5;entryY=1;entryDx=0;entryDy=0;" edge="1" parent="WIyWlLk6GJQsqaUBKTNV-1" source="IwlcvmSUmLIL70poKkPn-1" target="IwlcvmSUmLIL70poKkPn-11">
          <mxGeometry relative="1" as="geometry" />
        </mxCell>
        <mxCell id="IwlcvmSUmLIL70poKkPn-15" value="students" style="rounded=0;whiteSpace=wrap;html=1;" vertex="1" parent="WIyWlLk6GJQsqaUBKTNV-1">
          <mxGeometry x="230" y="60" width="120" height="40" as="geometry" />
        </mxCell>
        <mxCell id="IwlcvmSUmLIL70poKkPn-16" value="&lt;u&gt;id&lt;/u&gt;" style="ellipse;whiteSpace=wrap;html=1;" vertex="1" parent="WIyWlLk6GJQsqaUBKTNV-1">
          <mxGeometry x="210" y="10" width="70" height="40" as="geometry" />
        </mxCell>
        <mxCell id="IwlcvmSUmLIL70poKkPn-17" style="edgeStyle=none;rounded=0;orthogonalLoop=1;jettySize=auto;html=1;exitX=0.5;exitY=1;exitDx=0;exitDy=0;entryX=0.5;entryY=0;entryDx=0;entryDy=0;startArrow=none;startFill=0;endArrow=none;endFill=0;elbow=vertical;" edge="1" parent="WIyWlLk6GJQsqaUBKTNV-1" source="IwlcvmSUmLIL70poKkPn-18">
          <mxGeometry relative="1" as="geometry">
            <mxPoint x="290" y="60" as="targetPoint" />
          </mxGeometry>
        </mxCell>
        <mxCell id="IwlcvmSUmLIL70poKkPn-18" value="nis" style="ellipse;whiteSpace=wrap;html=1;" vertex="1" parent="WIyWlLk6GJQsqaUBKTNV-1">
          <mxGeometry x="290" y="10" width="70" height="40" as="geometry" />
        </mxCell>
        <mxCell id="IwlcvmSUmLIL70poKkPn-19" style="rounded=0;orthogonalLoop=1;jettySize=auto;elbow=vertical;html=1;exitX=0.5;exitY=0;exitDx=0;exitDy=0;startArrow=none;startFill=0;endArrow=none;endFill=0;entryX=0.5;entryY=1;entryDx=0;entryDy=0;" edge="1" parent="WIyWlLk6GJQsqaUBKTNV-1" target="IwlcvmSUmLIL70poKkPn-16">
          <mxGeometry relative="1" as="geometry">
            <mxPoint x="290" y="60" as="sourcePoint" />
          </mxGeometry>
        </mxCell>
      </root>
    </mxGraphModel>
  </diagram>
</mxfile>
